<svg xmlns="http://www.w3.org/2000/svg" width="64" height="64" viewBox="0 0 64 64" role="img" aria-label="GESALP AI mark">
  <defs>
    <style>
      .r{ fill:#E30613; }
      .s{ stroke:#E30613; stroke-width:2; stroke-linecap:round; stroke-linejoin:round; fill:none; }
    </style>
  </defs>
  <rect width="64" height="64" fill="#ffffff"/>
  <!-- Central Swiss-style cross -->
  <path class="r" d="M29 14h6v9h9v6h-9v9h-6v-9h-9v-6h9z"/>
  <!-- Circuit lines with nodes -->
  <path class="s" d="M32 14 V6"/><circle class="r" cx="32" cy="5" r="2"/>
  <path class="s" d="M32 50 V58"/><circle class="r" cx="32" cy="59" r="2"/>
  <path class="s" d="M14 32 H6"/><circle class="r" cx="5" cy="32" r="2"/>
  <path class="s" d="M50 32 H58"/><circle class="r" cx="59" cy="32" r="2"/>
  <path class="s" d="M44.5 19.5 L50 14"/><circle class="r" cx="51" cy="13" r="2"/>
  <path class="s" d="M19.5 44.5 L14 50"/><circle class="r" cx="13" cy="51" r="2"/>
  <path class="s" d="M19.5 19.5 L14 14"/><circle class="r" cx="13" cy="13" r="2"/>
  <path class="s" d="M44.5 44.5 L50 50"/><circle class="r" cx="51" cy="51" r="2"/>
</svg>

